<?xml version="1.0" encoding="UTF-8" standalone="no"?>
<svg
   xmlns:dc="http://purl.org/dc/elements/1.1/"
   xmlns:cc="http://creativecommons.org/ns#"
   xmlns:rdf="http://www.w3.org/1999/02/22-rdf-syntax-ns#"
   xmlns:svg="http://www.w3.org/2000/svg"
   xmlns="http://www.w3.org/2000/svg"
   id="svg3144"
   version="1.1"
   viewBox="0 0 21.940939 30.74345"
   height="30.74345mm"
   width="21.940939mm">
  <defs
     id="defs3138" />
  <metadata
     id="metadata3141">
    <rdf:RDF>
      <cc:Work
         rdf:about="">
        <dc:format>image/svg+xml</dc:format>
        <dc:type
           rdf:resource="http://purl.org/dc/dcmitype/StillImage" />
        <dc:title></dc:title>
      </cc:Work>
    </rdf:RDF>
  </metadata>
  <g
     transform="translate(-66.547225,-61.512277)"
     id="layer1">
    <g
       id="g3012"
       transform="matrix(0.35277777,0,0,-0.35277777,-32.499739,145.07501)">
      <g
         id="g652"
         transform="translate(308.5195,170.7432)">
        <path
           d="M 0,0 C 0,0 -9.489,6.123 -9.489,13.677 -9.489,21.23 0,27.354 0,27.354 Z"
           style="fill:#a2cf31;fill-opacity:1;fill-rule:nonzero;stroke:none"
           id="path654" />
      </g>
      <g
         id="g656"
         transform="translate(320.1055,152.5586)">
        <path
           d="m 0,0 c -0.828,0 -1.5,0.672 -1.5,1.5 v 9.686 H -21.671 V 1.5 c 0,-0.828 -0.672,-1.5 -1.5,-1.5 -0.828,0 -1.5,0.672 -1.5,1.5 v 11.186 c 0,0.828 0.672,1.5 1.5,1.5 H 0 c 0.828,0 1.5,-0.672 1.5,-1.5 V 1.5 C 1.5,0.672 0.828,0 0,0"
           style="fill:#399822;fill-opacity:1;fill-rule:nonzero;stroke:none"
           id="path658" />
      </g>
      <g
         id="g660"
         transform="translate(332.8486,177.8906)">
        <path
           d="m 0,0 c -0.553,0 -1,0.447 -1,1 0,0.553 0.447,1 1,1 1.405,0 2.341,0.484 2.341,2.846 v 12.833 c 0,0.552 0.447,1 1,1 0.553,0 1,-0.448 1,-1 V 4.846 C 4.341,0.63 1.621,0 0,0"
           style="fill:#a2cf31;fill-opacity:1;fill-rule:nonzero;stroke:none"
           id="path662" />
      </g>
      <g
         id="g664"
         transform="translate(297.0977,231.0361)">
        <path
           d="m 0,0 c -5.79,0 -10.5,-4.71 -10.5,-10.5 v -43.293 c 0,-5.79 4.71,-10.5 10.5,-10.5 h 22.845 c 5.79,0 10.5,4.71 10.5,10.5 V -10.5 c 0,5.79 -4.71,10.5 -10.5,10.5 z M 22.845,-67.293 H 0 c -7.444,0 -13.5,6.056 -13.5,13.5 V -10.5 C -13.5,-3.056 -7.444,3 0,3 h 22.845 c 7.444,0 13.5,-6.056 13.5,-13.5 v -43.293 c 0,-7.444 -6.056,-13.5 -13.5,-13.5"
           style="fill:#399822;fill-opacity:1;fill-rule:nonzero;stroke:none"
           id="path666" />
      </g>
      <path
         d="m 326.503,204.29 h -35.967 v 15.625 h 35.967 z"
         style="fill:#a2cf31;fill-opacity:1;fill-rule:nonzero;stroke:none"
         id="path668" />
      <g
         id="g670"
         transform="translate(308.5195,196.2617)">
        <path
           d="m 0,0 c -2.182,-1.615 -7.989,-6.424 -7.989,-11.842 0,-5.418 5.807,-10.226 7.989,-11.842 2.182,1.616 7.99,6.424 7.99,11.842 C 7.99,-6.424 2.182,-1.615 0,0 m 0,-27.019 c -0.283,0 -0.565,0.081 -0.813,0.24 -0.416,0.268 -10.176,6.662 -10.176,14.937 0,8.276 9.76,14.669 10.176,14.938 0.496,0.318 1.13,0.318 1.626,0 0.416,-0.269 10.177,-6.662 10.177,-14.938 0,-8.275 -9.761,-14.669 -10.177,-14.937 -0.248,-0.159 -0.53,-0.24 -0.813,-0.24"
           style="fill:#399822;fill-opacity:1;fill-rule:nonzero;stroke:none"
           id="path672" />
      </g>
      <g
         id="g674"
         transform="translate(308.5195,170.3604)">
        <path
           d="m 0,0 c -0.828,0 -1.5,0.672 -1.5,1.5 v 19.325 c 0,0.828 0.672,1.5 1.5,1.5 0.828,0 1.5,-0.672 1.5,-1.5 V 1.5 C 1.5,0.672 0.828,0 0,0"
           style="fill:#399822;fill-opacity:1;fill-rule:nonzero;stroke:none"
           id="path676" />
      </g>
      <g
         id="g678"
         transform="translate(308.5195,180.0234)">
        <path
           d="m 0,0 c -0.384,0 -0.768,0.146 -1.061,0.439 l -4.781,4.782 c -0.586,0.586 -0.586,1.535 0,2.121 0.586,0.586 1.535,0.586 2.121,0 L 1.061,2.561 C 1.646,1.975 1.646,1.025 1.061,0.439 0.768,0.146 0.384,0 0,0"
           style="fill:#399822;fill-opacity:1;fill-rule:nonzero;stroke:none"
           id="path680" />
      </g>
      <g
         id="g682"
         transform="translate(308.5195,180.0234)">
        <path
           d="m 0,0 c -0.384,0 -0.768,0.146 -1.061,0.439 -0.585,0.586 -0.585,1.536 0,2.122 l 4.782,4.781 c 0.586,0.586 1.535,0.586 2.121,0 0.586,-0.586 0.586,-1.535 0,-2.121 L 1.061,0.439 C 0.768,0.146 0.384,0 0,0"
           style="fill:#399822;fill-opacity:1;fill-rule:nonzero;stroke:none"
           id="path684" />
      </g>
      <g
         id="g686"
         transform="translate(335.2832,219.0361)">
        <path
           d="m 0,0 c -1.015,0 -1.841,-0.825 -1.841,-1.84 v -17.363 c 0,-1.015 0.826,-1.84 1.841,-1.84 1.015,0 1.84,0.825 1.84,1.84 V -1.84 C 1.84,-0.825 1.015,0 0,0 m 0,-24.043 c -2.669,0 -4.841,2.171 -4.841,4.84 V -1.84 C -4.841,0.829 -2.669,3 0,3 2.669,3 4.84,0.829 4.84,-1.84 v -17.363 c 0,-2.669 -2.171,-4.84 -4.84,-4.84"
           style="fill:#399822;fill-opacity:1;fill-rule:nonzero;stroke:none"
           id="path688" />
      </g>
      <g
         id="g690"
         transform="translate(326.5029,222.4932)">
        <path
           d="m 0,0 h -35.967 c -0.553,0 -1,0.447 -1,1 0,0.553 0.447,1 1,1 H 0 C 0.553,2 1,1.553 1,1 1,0.447 0.553,0 0,0"
           style="fill:#a2cf31;fill-opacity:1;fill-rule:nonzero;stroke:none"
           id="path692" />
      </g>
    </g>
  </g>
</svg>
